<svg width="512" height="512" viewBox="0 0 316 195" fill="none" xmlns="http://www.w3.org/2000/svg">
<path d="M93.2003 56.9434L84.9278 94.8844C84.4143 97.201 83.2541 99.2589 81.6432 100.87C80.0323 102.481 77.9744 103.641 75.6578 104.154L37.7168 112.427C37.2475 111.344 37 110.166 37 108.961V64.972C37 62.5593 37.9791 60.3721 39.5604 58.787C41.1455 57.2057 43.3327 56.2266 45.7454 56.2266H89.7346C90.9391 56.2266 92.1177 56.4741 93.2003 56.9434Z" fill="#3A3A3A"/>
<path d="M93.2003 56.9434L84.9278 94.8844L83.2689 102.495L75.6578 104.154L37.7168 112.427C37.2475 111.344 37 110.166 37 108.961V64.972C37 62.5593 37.9791 60.3721 39.5604 58.787C41.1455 57.2057 43.3327 56.2266 45.7454 56.2266H89.7346C90.9391 56.2266 92.1177 56.4741 93.2003 56.9434Z" fill="#595959"/>
<path d="M149.715 116.207V160.196C149.715 162.612 148.736 164.796 147.154 166.381C145.569 167.962 143.386 168.941 140.969 168.941H96.98C94.6597 168.941 92.4355 168.018 90.795 166.377L39.5604 115.142C38.7698 114.352 38.1491 113.432 37.7168 112.427C37.2475 111.344 37 110.166 37 108.961V64.972C37 62.5593 37.9791 60.3721 39.5604 58.787C41.1455 57.2057 43.3327 56.2266 45.7454 56.2266H89.7346C90.9391 56.2266 92.1177 56.4741 93.2003 56.9434C94.2052 57.3756 95.1252 57.9964 95.9159 58.787L147.15 110.022C148.791 111.662 149.715 113.886 149.715 116.207Z" fill="#7A7A7A"/>
<path d="M93.2005 56.9434L84.9281 94.8844L83.2691 102.496L39.5607 58.7871C41.1457 57.2057 43.333 56.2266 45.7456 56.2266H89.7349C90.9394 56.2266 92.118 56.4742 93.2005 56.9434Z" fill="url(#paint0_linear_6_4338)"/>
<path d="M83.2689 102.496L75.6578 104.155L37.7168 112.427C37.2475 111.345 37 110.166 37 108.961V64.9722C37 62.5595 37.9791 60.3723 39.5604 58.7872L83.2689 102.496Z" fill="url(#paint1_linear_6_4338)"/>
<path d="M147.154 166.381C145.569 167.962 143.385 168.941 140.969 168.941H96.9799C94.6633 168.941 92.4391 168.021 90.7986 166.381L39.5603 115.143C38.7697 114.352 38.149 113.432 37.7167 112.427L75.6577 104.154L83.2688 102.496L147.154 166.381Z" fill="url(#paint2_linear_6_4338)"/>
<path d="M149.715 116.207V160.196C149.715 162.612 148.736 164.796 147.154 166.381L83.2689 102.496L84.9278 94.8846L93.2003 56.9436C94.2053 57.3759 95.1253 57.9966 95.9159 58.7872L147.151 110.022C148.791 111.662 149.715 113.887 149.715 116.207Z" fill="url(#paint3_linear_6_4338)"/>
<path d="M279 64.972V108.961C279 110.166 278.753 111.344 278.283 112.427C277.851 113.432 277.23 114.352 276.44 115.143L225.205 166.377C223.565 168.018 221.341 168.941 219.02 168.941H175.031C172.615 168.941 170.431 167.962 168.846 166.381C167.265 164.796 166.286 162.612 166.286 160.196V116.207C166.286 113.886 167.209 111.662 168.85 110.022L220.084 58.7871C220.875 57.9964 221.795 57.3757 222.8 56.9434C223.883 56.4742 225.061 56.2266 226.266 56.2266H270.255C272.668 56.2266 274.855 57.2057 276.44 58.7871C278.021 60.3721 279 62.5594 279 64.972Z" fill="#7A7A7A"/>
<path d="M222.799 56.9434L231.072 94.8844L232.731 102.496L276.439 58.7871C274.854 57.2057 272.667 56.2266 270.254 56.2266H226.265C225.061 56.2266 223.882 56.4742 222.799 56.9434Z" fill="url(#paint4_linear_6_4338)"/>
<path d="M232.731 102.496L240.342 104.155L278.283 112.427C278.752 111.345 279 110.166 279 108.961V64.9722C279 62.5595 278.021 60.3723 276.44 58.7872L232.731 102.496Z" fill="url(#paint5_linear_6_4338)"/>
<path d="M168.846 166.381C170.431 167.962 172.614 168.941 175.031 168.941H219.02C221.336 168.941 223.561 168.021 225.201 166.381L276.439 115.143C277.23 114.352 277.851 113.432 278.283 112.427L240.342 104.154L232.731 102.496L168.846 166.381Z" fill="url(#paint6_linear_6_4338)"/>
<path d="M232.731 102.496L168.846 166.381C167.265 164.796 166.286 162.612 166.286 160.196V116.207C166.286 113.887 167.209 111.662 168.85 110.022L220.084 58.7872C220.875 57.9966 221.795 57.3759 222.8 56.9436L231.072 94.8846L232.731 102.496Z" fill="url(#paint7_linear_6_4338)"/>
<g style="mix-blend-mode:overlay" opacity="0.7" filter="url(#filter0_f_6_4338)">
<path d="M86.1395 130.472C100.423 130.472 112.002 119.058 112.002 104.978C112.002 90.8987 100.423 79.4849 86.1395 79.4849C71.8557 79.4849 60.2765 90.8987 60.2765 104.978C60.2765 119.058 71.8557 130.472 86.1395 130.472Z" fill="#D9D9D9"/>
</g>
<g style="mix-blend-mode:overlay" opacity="0.79" filter="url(#filter1_f_6_4338)">
<path d="M229.864 127.886C244.148 127.886 255.727 116.472 255.727 102.392C255.727 88.3124 244.148 76.8985 229.864 76.8985C215.58 76.8985 204.001 88.3124 204.001 102.392C204.001 116.472 215.58 127.886 229.864 127.886Z" fill="#D9D9D9"/>
</g>
<path d="M157.78 56.2267L138.342 76.6363L136.051 74.3456L124.117 62.4154C120.704 58.9978 120.704 53.4631 124.117 50.0455L138.342 35.8208L157.78 56.2267Z" fill="url(#paint8_linear_6_4338)"/>
<path d="M136.975 73.4218L136.975 73.4217L125.042 61.4921C122.137 58.5846 122.137 53.8763 125.042 50.9688L138.319 37.6912L155.976 56.2268L138.319 74.7659L136.975 73.4218Z" stroke="url(#paint9_radial_6_4338)" stroke-opacity="0.22" stroke-width="2.61291"/>
<path d="M191.443 62.4154L179.509 74.3456L177.218 76.6363L157.78 56.2267L177.218 35.8208L191.443 50.0455C194.857 53.4631 194.857 58.9978 191.443 62.4154Z" fill="url(#paint10_linear_6_4338)"/>
<path d="M177.218 35.8206L157.78 56.2265V19.9999H157.788C160.027 19.9999 162.262 20.857 163.969 22.564L177.218 35.8206Z" fill="url(#paint11_linear_6_4338)"/>
<path d="M138.357 35.8206L157.795 56.2265V19.9999H157.787C155.548 19.9999 153.313 20.857 151.606 22.564L138.357 35.8206Z" fill="url(#paint12_linear_6_4338)"/>
<path d="M138.357 76.6325L157.795 56.2266V92.4533H157.787C155.548 92.4533 153.313 91.5961 151.606 89.8891L138.357 76.6325Z" fill="url(#paint13_linear_6_4338)"/>
<path d="M177.218 76.6325L157.78 56.2266V92.4533H157.788C160.027 92.4533 162.262 91.5961 163.969 89.8891L177.218 76.6325Z" fill="url(#paint14_linear_6_4338)"/>
<g style="mix-blend-mode:overlay" opacity="0.79" filter="url(#filter2_f_6_4338)">
<path d="M157.817 70.987C165.775 70.987 172.227 64.7011 172.227 56.947C172.227 49.193 165.775 42.9071 157.817 42.9071C149.859 42.9071 143.408 49.193 143.408 56.947C143.408 64.7011 149.859 70.987 157.817 70.987Z" fill="#D9D9D9"/>
</g>
<defs>
<filter id="filter0_f_6_4338" x="21.8515" y="41.0598" width="128.576" height="127.837" filterUnits="userSpaceOnUse" color-interpolation-filters="sRGB">
<feFlood flood-opacity="0" result="BackgroundImageFix"/>
<feBlend mode="normal" in="SourceGraphic" in2="BackgroundImageFix" result="shape"/>
<feGaussianBlur stdDeviation="19.2125" result="effect1_foregroundBlur_6_4338"/>
</filter>
<filter id="filter1_f_6_4338" x="171.118" y="44.0156" width="117.492" height="116.753" filterUnits="userSpaceOnUse" color-interpolation-filters="sRGB">
<feFlood flood-opacity="0" result="BackgroundImageFix"/>
<feBlend mode="normal" in="SourceGraphic" in2="BackgroundImageFix" result="shape"/>
<feGaussianBlur stdDeviation="16.4415" result="effect1_foregroundBlur_6_4338"/>
</filter>
<filter id="filter2_f_6_4338" x="110.525" y="10.0242" width="94.5846" height="93.8457" filterUnits="userSpaceOnUse" color-interpolation-filters="sRGB">
<feFlood flood-opacity="0" result="BackgroundImageFix"/>
<feBlend mode="normal" in="SourceGraphic" in2="BackgroundImageFix" result="shape"/>
<feGaussianBlur stdDeviation="16.4415" result="effect1_foregroundBlur_6_4338"/>
</filter>
<linearGradient id="paint0_linear_6_4338" x1="93.1599" y1="113.481" x2="67.9067" y2="47.0864" gradientUnits="userSpaceOnUse">
<stop stop-color="#9195E8"/>
<stop offset="1" stop-color="#DFE1FF"/>
</linearGradient>
<linearGradient id="paint1_linear_6_4338" x1="60.1344" y1="58.7872" x2="60.1344" y2="112.427" gradientUnits="userSpaceOnUse">
<stop stop-color="#C0C3FF"/>
<stop offset="1" stop-color="#9195E8"/>
</linearGradient>
<linearGradient id="paint2_linear_6_4338" x1="37.7388" y1="105.059" x2="110.817" y2="143.44" gradientUnits="userSpaceOnUse">
<stop stop-color="#6267DC"/>
<stop offset="0.760417" stop-color="#9195E8"/>
<stop offset="1" stop-color="#9195E8"/>
</linearGradient>
<linearGradient id="paint3_linear_6_4338" x1="149.689" y1="166.307" x2="74.7936" y2="59.1198" gradientUnits="userSpaceOnUse">
<stop stop-color="#181728"/>
<stop offset="0.279585" stop-color="#6267DC"/>
<stop offset="0.5" stop-color="#9195E8"/>
<stop offset="1" stop-color="#DFE1FF"/>
</linearGradient>
<linearGradient id="paint4_linear_6_4338" x1="276.399" y1="111.649" x2="252.546" y2="46.8632" gradientUnits="userSpaceOnUse">
<stop stop-color="#9195E8"/>
<stop offset="1" stop-color="#DFE1FF"/>
</linearGradient>
<linearGradient id="paint5_linear_6_4338" x1="256.923" y1="58.7872" x2="256.923" y2="112.427" gradientUnits="userSpaceOnUse">
<stop stop-color="#C0C3FF"/>
<stop offset="1" stop-color="#9195E8"/>
</linearGradient>
<linearGradient id="paint6_linear_6_4338" x1="230.132" y1="205.132" x2="273.62" y2="104.285" gradientUnits="userSpaceOnUse">
<stop stop-color="#181728"/>
<stop offset="0.360679" stop-color="#6267DC"/>
<stop offset="0.721615" stop-color="#9195E8"/>
<stop offset="1" stop-color="#DFE1FF"/>
</linearGradient>
<linearGradient id="paint7_linear_6_4338" x1="230.609" y1="152.821" x2="159.689" y2="58.5793" gradientUnits="userSpaceOnUse">
<stop stop-color="#6267DC"/>
<stop offset="0.501235" stop-color="#9195E8"/>
<stop offset="0.973958" stop-color="#DFE1FF"/>
</linearGradient>
<linearGradient id="paint8_linear_6_4338" x1="128.625" y1="32.0079" x2="147.181" y2="77.6625" gradientUnits="userSpaceOnUse">
<stop offset="0.304665" stop-color="#DFE1FF"/>
<stop offset="1" stop-color="#6267DC"/>
</linearGradient>
<radialGradient id="paint9_radial_6_4338" cx="0" cy="0" r="1" gradientUnits="userSpaceOnUse" gradientTransform="translate(153.525 72.4908) rotate(-137.648) scale(13.8456 11.9963)">
<stop stop-color="#FFFEFE"/>
<stop offset="1" stop-color="#FFFEFE" stop-opacity="0"/>
</radialGradient>
<linearGradient id="paint10_linear_6_4338" x1="194.052" y1="101.099" x2="176.36" y2="25.1142" gradientUnits="userSpaceOnUse">
<stop offset="0.20559" stop-color="#DFE1FF"/>
<stop offset="1" stop-color="#6267DC"/>
</linearGradient>
<linearGradient id="paint11_linear_6_4338" x1="173.539" y1="26.8272" x2="154.007" y2="50.172" gradientUnits="userSpaceOnUse">
<stop offset="0.20559" stop-color="#DFE1FF"/>
<stop offset="1" stop-color="#9195E8"/>
</linearGradient>
<linearGradient id="paint12_linear_6_4338" x1="148.076" y1="19.9999" x2="139.862" y2="62.8063" gradientUnits="userSpaceOnUse">
<stop offset="0.20559" stop-color="#DFE1FF"/>
<stop offset="1" stop-color="#9195E8"/>
</linearGradient>
<linearGradient id="paint13_linear_6_4338" x1="152.68" y1="88.9979" x2="161.628" y2="71.0154" gradientUnits="userSpaceOnUse">
<stop stop-color="#9195E8"/>
<stop offset="1" stop-color="#6267DC"/>
</linearGradient>
<linearGradient id="paint14_linear_6_4338" x1="167.529" y1="118.773" x2="186.596" y2="81.1542" gradientUnits="userSpaceOnUse">
<stop stop-color="#9195E8"/>
<stop offset="1" stop-color="#6267DC"/>
</linearGradient>
</defs>
</svg>
