<svg xmlns="http://www.w3.org/2000/svg" width="1146" height="191" viewBox="0 0 1146 191" fill="none" foxified="">
<g clip-path="url(#clip0_665_1198)">
<path d="M58.9871 46.6941L50.3044 86.4332C49.7654 88.8596 48.5477 91.0151 46.8569 92.7023C45.1662 94.3896 43.0062 95.6047 40.5747 96.1426L0.752317 104.807C0.259821 103.673 0 102.439 0 101.177V55.1032C0 52.5762 1.02765 50.2853 2.6874 48.6251C4.35103 46.9689 6.64676 45.9434 9.17904 45.9434H55.3496C56.6138 45.9434 57.8508 46.2026 58.9871 46.6941Z" fill="#3A3A3A"/>
<path d="M58.9871 46.6941L50.3044 86.4332L48.5632 94.4051L40.5747 96.1426L0.752317 104.807C0.259821 103.673 0 102.439 0 101.177V55.1032C0 52.5762 1.02765 50.2853 2.6874 48.6251C4.35103 46.9689 6.64676 45.9434 9.17904 45.9434H55.3496C56.6138 45.9434 57.8508 46.2026 58.9871 46.6941Z" fill="#595959"/>
<path d="M118.304 108.766V154.84C118.304 157.371 117.276 159.658 115.616 161.318C113.953 162.974 111.661 164 109.125 164H62.9542C60.5188 164 58.1843 163.032 56.4625 161.314L2.6874 107.651C1.85752 106.823 1.20603 105.86 0.752317 104.807C0.259821 103.673 0 102.439 0 101.177V55.1032C0 52.5762 1.02765 50.2853 2.6874 48.6251C4.35103 46.9689 6.64676 45.9434 9.17904 45.9434H55.3496C56.6138 45.9434 57.8508 46.2026 58.9871 46.6941C60.0419 47.1469 61.0075 47.797 61.8373 48.6251L115.612 102.288C117.334 104.006 118.304 106.336 118.304 108.766Z" fill="#7A7A7A"/>
<path d="M58.9873 46.6941L50.3046 86.4332L48.5634 94.4051L2.68762 48.6251C4.35125 46.9689 6.64698 45.9434 9.17926 45.9434H55.3498C56.614 45.9434 57.8511 46.2026 58.9873 46.6941Z" fill="url(#paint0_linear_665_1198)"/>
<path d="M48.5632 94.4052L40.5747 96.1427L0.752317 104.807C0.259821 103.673 0 102.439 0 101.177V55.1033C0 52.5763 1.02765 50.2854 2.6874 48.6252L48.5632 94.4052Z" fill="url(#paint1_linear_665_1198)"/>
<path d="M115.616 161.318C113.953 162.974 111.661 164 109.125 164H62.9541C60.5226 164 58.1881 163.036 56.4663 161.318L2.68728 107.651C1.8574 106.823 1.20591 105.86 0.752197 104.807L40.5746 96.1426L48.5631 94.405L115.616 161.318Z" fill="url(#paint2_linear_665_1198)"/>
<path d="M118.304 108.766V154.84C118.304 157.371 117.276 159.658 115.616 161.318L48.5632 94.4053L50.3044 86.4335L58.9871 46.6943C60.0419 47.1471 61.0075 47.7972 61.8374 48.6254L115.613 102.288C117.334 104.006 118.304 106.336 118.304 108.766Z" fill="url(#paint3_linear_665_1198)"/>
<path d="M254 55.1032V101.177C254 102.439 253.74 103.673 253.248 104.807C252.794 105.86 252.143 106.823 251.313 107.651L197.538 161.314C195.816 163.032 193.481 164 191.046 164H144.876C142.339 164 140.048 162.974 138.384 161.318C136.724 159.658 135.697 157.371 135.697 154.84V108.766C135.697 106.336 136.666 104.006 138.388 102.288L192.163 48.6251C192.993 47.797 193.958 47.1469 195.013 46.6941C196.149 46.2026 197.387 45.9434 198.651 45.9434H244.821C247.354 45.9434 249.649 46.9689 251.313 48.6251C252.973 50.2853 254 52.5762 254 55.1032Z" fill="#7A7A7A"/>
<path d="M195.013 46.6941L203.695 86.4332L205.436 94.4051L251.312 48.6251C249.649 46.9689 247.353 45.9434 244.821 45.9434H198.65C197.386 45.9434 196.149 46.2026 195.013 46.6941Z" fill="url(#paint4_linear_665_1198)"/>
<path d="M205.437 94.4052L213.425 96.1427L253.248 104.807C253.74 103.673 254 102.439 254 101.177V55.1033C254 52.5763 252.972 50.2854 251.313 48.6252L205.437 94.4052Z" fill="url(#paint5_linear_665_1198)"/>
<path d="M138.384 161.318C140.047 162.974 142.339 164 144.875 164H191.046C193.477 164 195.812 163.036 197.533 161.318L251.312 107.651C252.142 106.823 252.794 105.86 253.248 104.807L213.425 96.1426L205.437 94.405L138.384 161.318Z" fill="url(#paint6_linear_665_1198)"/>
<path d="M205.437 94.4053L138.384 161.318C136.724 159.658 135.697 157.371 135.697 154.84V108.766C135.697 106.336 136.666 104.006 138.388 102.288L192.163 48.6254C192.993 47.7972 193.958 47.1471 195.013 46.6943L203.696 86.4335L205.437 94.4053Z" fill="url(#paint7_linear_665_1198)"/>
<g style="mix-blend-mode:overlay" opacity="0.7" filter="url(#filter0_f_665_1198)">
<path d="M51.5762 123.707C66.5683 123.707 78.7217 111.753 78.7217 97.0057C78.7217 82.2587 66.5683 70.304 51.5762 70.304C36.5842 70.304 24.4308 82.2587 24.4308 97.0057C24.4308 111.753 36.5842 123.707 51.5762 123.707Z" fill="#D9D9D9"/>
</g>
<g style="mix-blend-mode:overlay" opacity="0.79" filter="url(#filter1_f_665_1198)">
<path d="M202.428 120.998C217.42 120.998 229.573 109.044 229.573 94.2967C229.573 79.5497 217.42 67.595 202.428 67.595C187.436 67.595 175.282 79.5497 175.282 94.2967C175.282 109.044 187.436 120.998 202.428 120.998Z" fill="#D9D9D9"/>
</g>
<path d="M126.769 45.9435L106.367 67.3204L103.963 64.9211L91.4373 52.4255C87.8541 48.8459 87.8541 43.0489 91.4373 39.4693L106.367 24.5706L126.769 45.9435Z" fill="url(#paint8_linear_665_1198)"/>
<path d="M106.345 26.4389L92.3606 40.3936C92.3604 40.3938 92.3603 40.3939 92.3601 40.3941C89.2885 43.4632 89.2884 48.4314 92.36 51.5006L106.345 26.4389ZM106.345 26.4389L124.963 45.9436L106.345 65.452L104.886 63.9963L104.886 63.9962L92.3606 51.5012L106.345 26.4389Z" stroke="url(#paint9_radial_665_1198)" stroke-opacity="0.22" stroke-width="2.61291"/>
<path d="M162.101 52.4255L149.575 64.9211L147.171 67.3204L126.769 45.9435L147.171 24.5706L162.101 39.4693C165.684 43.0489 165.684 48.8459 162.101 52.4255Z" fill="url(#paint10_linear_665_1198)"/>
<path d="M147.171 24.5703L126.769 45.9433V7.99976H126.777C129.127 7.99976 131.473 8.89755 133.265 10.6854L147.171 24.5703Z" fill="url(#paint11_linear_665_1198)"/>
<path d="M106.383 24.5703L126.785 45.9433V7.99976H126.777C124.427 7.99976 122.081 8.89755 120.289 10.6854L106.383 24.5703Z" fill="url(#paint12_linear_665_1198)"/>
<path d="M106.383 67.3163L126.785 45.9434V83.8869H126.777C124.427 83.8869 122.081 82.9891 120.289 81.2012L106.383 67.3163Z" fill="url(#paint13_linear_665_1198)"/>
<path d="M147.171 67.3163L126.769 45.9434V83.8869H126.777C129.127 83.8869 131.473 82.9891 133.265 81.2012L147.171 67.3163Z" fill="url(#paint14_linear_665_1198)"/>
<g style="mix-blend-mode:overlay" opacity="0.79" filter="url(#filter2_f_665_1198)">
<path d="M126.808 61.4033C135.161 61.4033 141.932 54.8195 141.932 46.698C141.932 38.5765 135.161 31.9927 126.808 31.9927C118.456 31.9927 111.684 38.5765 111.684 46.698C111.684 54.8195 118.456 61.4033 126.808 61.4033Z" fill="#D9D9D9"/>
</g>
</g>
<path d="M342.4 147L313.15 42H329.95L355.45 136.8H357.4L382.75 42H399.55L370.45 147H342.4ZM409.771 147V73.05H425.221V147H409.771ZM417.571 63C414.571 63 412.021 62.05 409.921 60.15C407.921 58.15 406.921 55.6 406.921 52.5C406.921 49.4 407.921 46.9 409.921 45C412.021 43 414.571 42 417.571 42C420.671 42 423.221 43 425.221 45C427.221 46.9 428.221 49.4 428.221 52.5C428.221 55.6 427.221 58.15 425.221 60.15C423.221 62.05 420.671 63 417.571 63ZM471.4 147C466.9 147 463.3 145.65 460.6 142.95C458 140.25 456.7 136.65 456.7 132.15V86.1H436.3V73.05H456.7V48.6H472.15V73.05H494.2V86.1H472.15V129.45C472.15 132.45 473.55 133.95 476.35 133.95H491.8V147H471.4ZM530.655 149.1C525.355 149.1 520.605 148.2 516.405 146.4C512.305 144.6 509.005 141.95 506.505 138.45C504.105 134.95 502.905 130.7 502.905 125.7C502.905 120.6 504.105 116.4 506.505 113.1C509.005 109.7 512.355 107.15 516.555 105.45C520.855 103.75 525.705 102.9 531.105 102.9H553.605V98.1C553.605 93.8 552.305 90.35 549.705 87.75C547.105 85.15 543.105 83.85 537.705 83.85C532.405 83.85 528.355 85.1 525.555 87.6C522.755 90.1 520.905 93.35 520.005 97.35L505.605 92.7C506.805 88.7 508.705 85.1 511.305 81.9C514.005 78.6 517.555 75.95 521.955 73.95C526.355 71.95 531.655 70.95 537.855 70.95C547.455 70.95 555.005 73.4 560.505 78.3C566.005 83.2 568.755 90.15 568.755 99.15V129.6C568.755 132.6 570.155 134.1 572.955 134.1H579.255V147H567.705C564.205 147 561.355 146.1 559.155 144.3C556.955 142.5 555.855 140.05 555.855 136.95V136.5H553.605C552.805 138 551.605 139.75 550.005 141.75C548.405 143.75 546.055 145.5 542.955 147C539.855 148.4 535.755 149.1 530.655 149.1ZM532.905 136.35C539.105 136.35 544.105 134.6 547.905 131.1C551.705 127.5 553.605 122.6 553.605 116.4V114.9H532.005C527.905 114.9 524.605 115.8 522.105 117.6C519.605 119.3 518.355 121.85 518.355 125.25C518.355 128.65 519.655 131.35 522.255 133.35C524.855 135.35 528.405 136.35 532.905 136.35ZM589.777 147V42H605.227V147H589.777ZM656.938 147V42H698.638C705.038 42 710.738 43.3 715.738 45.9C720.838 48.4 724.788 52 727.588 56.7C730.488 61.3 731.938 66.85 731.938 73.35V75.3C731.938 81.8 730.438 87.4 727.438 92.1C724.538 96.8 720.588 100.4 715.588 102.9C710.588 105.4 704.938 106.65 698.638 106.65H673.138V147H656.938ZM673.138 91.95H696.988C702.688 91.95 707.238 90.45 710.638 87.45C714.038 84.45 715.738 80.35 715.738 75.15V73.65C715.738 68.35 714.038 64.2 710.638 61.2C707.238 58.2 702.688 56.7 696.988 56.7H673.138V91.95ZM743.269 147V73.05H758.419V81.75H760.819C762.019 78.65 763.919 76.4 766.519 75C769.219 73.5 772.519 72.75 776.419 72.75H785.269V86.7H775.819C770.819 86.7 766.719 88.1 763.519 90.9C760.319 93.6 758.719 97.8 758.719 103.5V147H743.269ZM828.79 149.1C821.39 149.1 814.79 147.6 808.99 144.6C803.29 141.5 798.79 137.1 795.49 131.4C792.19 125.7 790.54 118.95 790.54 111.15V108.9C790.54 101.1 792.19 94.4 795.49 88.8C798.79 83.1 803.29 78.7 808.99 75.6C814.79 72.5 821.39 70.95 828.79 70.95C836.19 70.95 842.79 72.5 848.59 75.6C854.39 78.7 858.94 83.1 862.24 88.8C865.54 94.4 867.19 101.1 867.19 108.9V111.15C867.19 118.95 865.54 125.7 862.24 131.4C858.94 137.1 854.39 141.5 848.59 144.6C842.79 147.6 836.19 149.1 828.79 149.1ZM828.79 135.3C835.59 135.3 841.09 133.15 845.29 128.85C849.59 124.45 851.74 118.4 851.74 110.7V109.35C851.74 101.65 849.64 95.65 845.44 91.35C841.24 86.95 835.69 84.75 828.79 84.75C822.09 84.75 816.59 86.95 812.29 91.35C808.09 95.65 805.99 101.65 805.99 109.35V110.7C805.99 118.4 808.09 124.45 812.29 128.85C816.59 133.15 822.09 135.3 828.79 135.3ZM870.791 147L898.991 109.65L871.391 73.05H889.541L908.891 99.6H911.291L930.641 73.05H948.941L921.191 109.65L949.391 147H930.941L911.291 119.85H908.891L889.241 147H870.791ZM961.507 147V73.05H976.957V147H961.507ZM969.307 63C966.307 63 963.757 62.05 961.657 60.15C959.657 58.15 958.657 55.6 958.657 52.5C958.657 49.4 959.657 46.9 961.657 45C963.757 43 966.307 42 969.307 42C972.407 42 974.957 43 976.957 45C978.957 46.9 979.957 49.4 979.957 52.5C979.957 55.6 978.957 58.15 976.957 60.15C974.957 62.05 972.407 63 969.307 63ZM1029.29 149.1C1021.79 149.1 1015.24 147.55 1009.64 144.45C1004.04 141.25 999.636 136.8 996.436 131.1C993.336 125.3 991.786 118.6 991.786 111V109.2C991.786 101.5 993.336 94.8 996.436 89.1C999.536 83.3 1003.84 78.85 1009.34 75.75C1014.94 72.55 1021.39 70.95 1028.69 70.95C1035.79 70.95 1041.99 72.55 1047.29 75.75C1052.69 78.85 1056.89 83.2 1059.89 88.8C1062.89 94.4 1064.39 100.95 1064.39 108.45V114.3H1007.54C1007.74 120.8 1009.89 126 1013.99 129.9C1018.19 133.7 1023.39 135.6 1029.59 135.6C1035.39 135.6 1039.74 134.3 1042.64 131.7C1045.64 129.1 1047.94 126.1 1049.54 122.7L1062.29 129.3C1060.89 132.1 1058.84 135.05 1056.14 138.15C1053.54 141.25 1050.09 143.85 1045.79 145.95C1041.49 148.05 1035.99 149.1 1029.29 149.1ZM1007.69 102.45H1048.64C1048.24 96.85 1046.24 92.5 1042.64 89.4C1039.04 86.2 1034.34 84.6 1028.54 84.6C1022.74 84.6 1017.99 86.2 1014.29 89.4C1010.69 92.5 1008.49 96.85 1007.69 102.45ZM1108.78 149.1C1099.38 149.1 1091.58 147 1085.38 142.8C1079.18 138.6 1075.38 132.25 1073.98 123.75L1088.38 120.3C1089.18 124.4 1090.53 127.65 1092.43 130.05C1094.33 132.45 1096.68 134.15 1099.48 135.15C1102.38 136.15 1105.48 136.65 1108.78 136.65C1113.68 136.65 1117.43 135.7 1120.03 133.8C1122.73 131.9 1124.08 129.45 1124.08 126.45C1124.08 123.45 1122.83 121.25 1120.33 119.85C1117.83 118.45 1114.13 117.3 1109.23 116.4L1104.13 115.5C1099.13 114.6 1094.58 113.3 1090.48 111.6C1086.38 109.9 1083.13 107.55 1080.73 104.55C1078.33 101.55 1077.13 97.7 1077.13 93C1077.13 86 1079.73 80.6 1084.93 76.8C1090.13 72.9 1097.03 70.95 1105.63 70.95C1113.93 70.95 1120.73 72.85 1126.03 76.65C1131.43 80.35 1134.93 85.4 1136.53 91.8L1122.13 95.85C1121.23 91.35 1119.33 88.2 1116.43 86.4C1113.53 84.5 1109.93 83.55 1105.63 83.55C1101.43 83.55 1098.13 84.35 1095.73 85.95C1093.33 87.45 1092.13 89.6 1092.13 92.4C1092.13 95.4 1093.28 97.6 1095.58 99C1097.98 100.4 1101.18 101.45 1105.18 102.15L1110.43 103.05C1115.73 103.95 1120.58 105.2 1124.98 106.8C1129.38 108.4 1132.83 110.7 1135.33 113.7C1137.93 116.7 1139.23 120.7 1139.23 125.7C1139.23 133.1 1136.48 138.85 1130.98 142.95C1125.48 147.05 1118.08 149.1 1108.78 149.1Z" fill="url(#paint15_linear_665_1198)"/>
<defs>
<filter id="filter0_f_665_1198" x="-13.9942" y="31.8789" width="131.141" height="130.254" filterUnits="userSpaceOnUse" color-interpolation-filters="sRGB">
<feFlood flood-opacity="0" result="BackgroundImageFix"/>
<feBlend mode="normal" in="SourceGraphic" in2="BackgroundImageFix" result="shape"/>
<feGaussianBlur stdDeviation="19.2125" result="effect1_foregroundBlur_665_1198"/>
</filter>
<filter id="filter1_f_665_1198" x="142.399" y="34.712" width="120.057" height="119.169" filterUnits="userSpaceOnUse" color-interpolation-filters="sRGB">
<feFlood flood-opacity="0" result="BackgroundImageFix"/>
<feBlend mode="normal" in="SourceGraphic" in2="BackgroundImageFix" result="shape"/>
<feGaussianBlur stdDeviation="16.4415" result="effect1_foregroundBlur_665_1198"/>
</filter>
<filter id="filter2_f_665_1198" x="78.8014" y="-0.89027" width="96.0137" height="95.1765" filterUnits="userSpaceOnUse" color-interpolation-filters="sRGB">
<feFlood flood-opacity="0" result="BackgroundImageFix"/>
<feBlend mode="normal" in="SourceGraphic" in2="BackgroundImageFix" result="shape"/>
<feGaussianBlur stdDeviation="16.4415" result="effect1_foregroundBlur_665_1198"/>
</filter>
<linearGradient id="paint0_linear_665_1198" x1="58.9446" y1="105.911" x2="32.536" y2="36.3332" gradientUnits="userSpaceOnUse">
<stop stop-color="#9195E8"/>
<stop offset="1" stop-color="#DFE1FF"/>
</linearGradient>
<linearGradient id="paint1_linear_665_1198" x1="24.2816" y1="48.6252" x2="24.2816" y2="104.807" gradientUnits="userSpaceOnUse">
<stop stop-color="#C0C3FF"/>
<stop offset="1" stop-color="#9195E8"/>
</linearGradient>
<linearGradient id="paint2_linear_665_1198" x1="0.775464" y1="97.09" x2="77.4083" y2="137.422" gradientUnits="userSpaceOnUse">
<stop stop-color="#6267DC"/>
<stop offset="0.760417" stop-color="#9195E8"/>
<stop offset="1" stop-color="#9195E8"/>
</linearGradient>
<linearGradient id="paint3_linear_665_1198" x1="118.277" y1="161.241" x2="39.8886" y2="48.8196" gradientUnits="userSpaceOnUse">
<stop stop-color="#181728"/>
<stop offset="0.279585" stop-color="#6267DC"/>
<stop offset="0.5" stop-color="#9195E8"/>
<stop offset="1" stop-color="#DFE1FF"/>
</linearGradient>
<linearGradient id="paint4_linear_665_1198" x1="251.27" y1="103.992" x2="226.326" y2="36.1024" gradientUnits="userSpaceOnUse">
<stop stop-color="#9195E8"/>
<stop offset="1" stop-color="#DFE1FF"/>
</linearGradient>
<linearGradient id="paint5_linear_665_1198" x1="230.828" y1="48.6252" x2="230.828" y2="104.807" gradientUnits="userSpaceOnUse">
<stop stop-color="#C0C3FF"/>
<stop offset="1" stop-color="#9195E8"/>
</linearGradient>
<linearGradient id="paint6_linear_665_1198" x1="202.709" y1="201.906" x2="248.192" y2="96.2103" gradientUnits="userSpaceOnUse">
<stop stop-color="#181728"/>
<stop offset="0.360679" stop-color="#6267DC"/>
<stop offset="0.721615" stop-color="#9195E8"/>
<stop offset="1" stop-color="#DFE1FF"/>
</linearGradient>
<linearGradient id="paint7_linear_665_1198" x1="203.209" y1="147.116" x2="128.971" y2="48.2583" gradientUnits="userSpaceOnUse">
<stop stop-color="#6267DC"/>
<stop offset="0.501235" stop-color="#9195E8"/>
<stop offset="0.973958" stop-color="#DFE1FF"/>
</linearGradient>
<linearGradient id="paint8_linear_665_1198" x1="96.1687" y1="20.5769" x2="115.575" y2="68.4235" gradientUnits="userSpaceOnUse">
<stop offset="0.304665" stop-color="#DFE1FF"/>
<stop offset="1" stop-color="#6267DC"/>
</linearGradient>
<radialGradient id="paint9_radial_665_1198" cx="0" cy="0" r="1" gradientUnits="userSpaceOnUse" gradientTransform="translate(122.303 62.9784) rotate(-137.707) scale(14.5184 12.5767)">
<stop stop-color="#FFFEFE"/>
<stop offset="1" stop-color="#FFFEFE" stop-opacity="0"/>
</radialGradient>
<linearGradient id="paint10_linear_665_1198" x1="164.839" y1="92.9424" x2="146.344" y2="13.3394" gradientUnits="userSpaceOnUse">
<stop offset="0.20559" stop-color="#DFE1FF"/>
<stop offset="1" stop-color="#6267DC"/>
</linearGradient>
<linearGradient id="paint11_linear_665_1198" x1="143.309" y1="15.1507" x2="122.86" y2="39.644" gradientUnits="userSpaceOnUse">
<stop offset="0.20559" stop-color="#DFE1FF"/>
<stop offset="1" stop-color="#9195E8"/>
</linearGradient>
<linearGradient id="paint12_linear_665_1198" x1="116.584" y1="7.99976" x2="107.997" y2="52.8415" gradientUnits="userSpaceOnUse">
<stop offset="0.20559" stop-color="#DFE1FF"/>
<stop offset="1" stop-color="#9195E8"/>
</linearGradient>
<linearGradient id="paint13_linear_665_1198" x1="121.416" y1="80.2677" x2="130.777" y2="61.4174" gradientUnits="userSpaceOnUse">
<stop stop-color="#9195E8"/>
<stop offset="1" stop-color="#6267DC"/>
</linearGradient>
<linearGradient id="paint14_linear_665_1198" x1="137.001" y1="111.454" x2="156.947" y2="72.0187" gradientUnits="userSpaceOnUse">
<stop stop-color="#9195E8"/>
<stop offset="1" stop-color="#6267DC"/>
</linearGradient>
<linearGradient id="paint15_linear_665_1198" x1="749.5" y1="147" x2="750.5" y2="42.5" gradientUnits="userSpaceOnUse">
<stop stop-color="#9194B7"/>
<stop offset="1" stop-color="#F2F3FB"/>
</linearGradient>
<clipPath id="clip0_665_1198">
<rect width="254" height="156" fill="white" transform="translate(0 8)"/>
</clipPath>
</defs>
</svg>